<svg version="1.2" baseProfile="tiny-ps" xmlns="http://www.w3.org/2000/svg" viewBox="0 0 2304 1299" width="2304" height="1299">
	<title>Shape</title>
	<style>
		tspan { white-space:pre }
		.shp0 { fill: #735981 } 
	</style>
	<path id="Shape" class="shp0" d="M287.57 1080C287.57 612.65 666.43 233.79 1133.78 233.79C1601.14 233.79 1980 612.65 1980 1080L1980 154L284 154L284 1080L287.57 1080ZM143.19 1189C143.19 639.89 588.18 194.75 1137.1 194.75C1686.01 194.75 2131 639.89 2131 1189L2131 101L139 101L139 1189L143.19 1189ZM49.66 1259C49.66 648.82 544.24 154.18 1154.33 154.18C1764.42 154.18 2259 648.82 2259 1259L2259 50L45 50L45 1259L49.66 1259Z" />
</svg>